<svg xmlns="http://www.w3.org/2000/svg" width="1280" height="640" viewBox="0 0 1280 640">
  <defs>
    <linearGradient id="bg" x1="0%" y1="0%" x2="100%" y2="100%">
      <stop offset="0%" stop-color="#f8faff"/>
      <stop offset="100%" stop-color="#e7edf7"/>
    </linearGradient>
    <radialGradient id="glowA" cx="50%" cy="50%" r="50%">
      <stop offset="0%" stop-color="#5b5cf0" stop-opacity="0.22"/>
      <stop offset="100%" stop-color="#5b5cf0" stop-opacity="0"/>
    </radialGradient>
    <radialGradient id="glowB" cx="50%" cy="50%" r="50%">
      <stop offset="0%" stop-color="#25a55f" stop-opacity="0.18"/>
      <stop offset="100%" stop-color="#25a55f" stop-opacity="0"/>
    </radialGradient>
    <radialGradient id="glowC" cx="50%" cy="50%" r="50%">
      <stop offset="0%" stop-color="#f59e0b" stop-opacity="0.16"/>
      <stop offset="100%" stop-color="#f59e0b" stop-opacity="0"/>
    </radialGradient>
    <clipPath id="overviewClip">
      <rect x="670" y="126" width="520" height="316" rx="28"/>
    </clipPath>
    <clipPath id="editClip">
      <rect x="644" y="396" width="288" height="154" rx="24"/>
    </clipPath>
    <clipPath id="searchClip">
      <rect x="958" y="384" width="210" height="118" rx="20"/>
    </clipPath>
  </defs>

  <rect width="1280" height="640" fill="url(#bg)"/>
  <circle cx="118" cy="560" r="228" fill="url(#glowB)"/>
  <circle cx="1098" cy="86" r="210" fill="url(#glowA)"/>
  <circle cx="746" cy="598" r="170" fill="url(#glowC)"/>

  <g transform="translate(86 78)">
    <image href="{{ICON_IMAGE}}" x="0" y="0" width="42" height="42" preserveAspectRatio="xMidYMid meet"/>
    <text x="58" y="19" fill="#46516d" font-family="Helvetica, Arial, sans-serif" font-size="18" font-weight="700" letter-spacing="0.1em">
      TAB MANAGER V2
    </text>
    <text x="58" y="43" fill="#6d7893" font-family="Helvetica, Arial, sans-serif" font-size="14" font-weight="600">
      Browser tab control for crowded workspaces
    </text>
  </g>

  <g transform="translate(86 214)">
    <text fill="#182132" font-family="Helvetica, Arial, sans-serif" font-size="64" font-weight="800" letter-spacing="-0.055em">
      <tspan x="0" y="0">Too many tabs,</tspan>
      <tspan x="0" y="72">handled.</tspan>
    </text>
    <text fill="#54607c" font-family="Helvetica, Arial, sans-serif" font-size="24" font-weight="500">
      <tspan x="0" y="170">Search, group, move, and clean up tabs</tspan>
      <tspan x="0" y="204">across windows.</tspan>
    </text>
  </g>

  <g transform="translate(86 502)">
    <rect width="122" height="34" rx="17" fill="#ffffff" stroke="#d8deeb"/>
    <text x="61" y="17.5" fill="#3a66dd" font-family="Helvetica, Arial, sans-serif" font-size="14.5" font-weight="700" text-anchor="middle" dominant-baseline="middle">
      Search
    </text>
    <rect x="136" width="144" height="34" rx="17" fill="#ffffff" stroke="#d8deeb"/>
    <text x="208" y="17.5" fill="#1f8f53" font-family="Helvetica, Arial, sans-serif" font-size="14.5" font-weight="700" text-anchor="middle" dominant-baseline="middle">
      Tab groups
    </text>
    <rect x="294" width="146" height="34" rx="17" fill="#ffffff" stroke="#d8deeb"/>
    <text x="367" y="17.5" fill="#ed7b18" font-family="Helvetica, Arial, sans-serif" font-size="14.5" font-weight="700" text-anchor="middle" dominant-baseline="middle">
      Bulk actions
    </text>
  </g>

  <g transform="rotate(-2 930 284)">
    <rect x="682" y="138" width="520" height="316" rx="28" fill="#cfd7e7" opacity="0.76"/>
    <rect x="670" y="126" width="520" height="316" rx="28" fill="#ffffff" stroke="#ced6e7"/>
    <image
      href="{{OVERVIEW_IMAGE}}"
      x="670"
      y="126"
      width="520"
      height="316"
      preserveAspectRatio="xMidYMid slice"
      clip-path="url(#overviewClip)"
    />
  </g>

  <g transform="rotate(4 788 473)">
    <rect x="656" y="408" width="288" height="154" rx="24" fill="#c5cee0" opacity="0.78"/>
    <rect x="644" y="396" width="288" height="154" rx="24" fill="#ffffff" stroke="#cfd7e7"/>
    <image
      href="{{GROUP_EDITING_IMAGE}}"
      x="644"
      y="396"
      width="288"
      height="154"
      preserveAspectRatio="xMidYMid slice"
      clip-path="url(#editClip)"
    />
  </g>

  <g transform="rotate(-4 1063 443)">
    <rect x="968" y="394" width="210" height="118" rx="20" fill="#c5cee0" opacity="0.76"/>
    <rect x="958" y="384" width="210" height="118" rx="20" fill="#ffffff" stroke="#cfd7e7"/>
    <image
      href="{{SEARCH_GROUPS_IMAGE}}"
      x="958"
      y="384"
      width="210"
      height="118"
      preserveAspectRatio="xMidYMid slice"
      clip-path="url(#searchClip)"
    />
  </g>
</svg>
